<svg width="24" height="24" viewBox="0 0 24 24" fill="none" xmlns="http://www.w3.org/2000/svg">
<g clip-path="url(#clip0_1_155)">
<path d="M21.75 3.75H2.25C1.42157 3.75 0.75 4.42157 0.75 5.25V21.75C0.75 22.5784 1.42157 23.25 2.25 23.25H21.75C22.5784 23.25 23.25 22.5784 23.25 21.75V5.25C23.25 4.42157 22.5784 3.75 21.75 3.75Z" stroke="#6064D8" stroke-width="1.5" stroke-linecap="round" stroke-linejoin="round"/>
<path d="M0.75 9.75H23.25" stroke="#6064D8" stroke-width="1.5" stroke-linecap="round" stroke-linejoin="round"/>
<path d="M6.75 6V0.75" stroke="#6064D8" stroke-width="1.5" stroke-linecap="round" stroke-linejoin="round"/>
<path d="M17.25 6V0.75" stroke="#6064D8" stroke-width="1.5" stroke-linecap="round" stroke-linejoin="round"/>
<path d="M15.7629 16C15.7629 15.8011 15.6839 15.6103 15.5433 15.4697C15.4026 15.329 15.2119 15.25 15.0129 15.25H13.5129V13.75C13.5129 13.5511 13.4339 13.3603 13.2933 13.2197C13.1526 13.079 12.9619 13 12.7629 13H11.2629C11.064 13 10.8733 13.079 10.7326 13.2197C10.592 13.3603 10.5129 13.5511 10.5129 13.75V15.25H9.01294C8.81403 15.25 8.62326 15.329 8.48261 15.4697C8.34196 15.6103 8.26294 15.8011 8.26294 16V17.5C8.26294 17.6989 8.34196 17.8897 8.48261 18.0303C8.62326 18.171 8.81403 18.25 9.01294 18.25H10.5129V19.75C10.5129 19.9489 10.592 20.1397 10.7326 20.2803C10.8733 20.421 11.064 20.5 11.2629 20.5H12.7629C12.9619 20.5 13.1526 20.421 13.2933 20.2803C13.4339 20.1397 13.5129 19.9489 13.5129 19.75V18.25H15.0129C15.2119 18.25 15.4026 18.171 15.5433 18.0303C15.6839 17.8897 15.7629 17.6989 15.7629 17.5V16Z" stroke="#6064D8" stroke-width="1.5" stroke-linecap="round" stroke-linejoin="round"/>
</g>
<defs>
<clipPath id="clip0_1_155">
<rect width="24" height="24" fill="white"/>
</clipPath>
</defs>
</svg>
