<svg width="24" height="24" viewBox="0 0 24 24" fill="none" xmlns="http://www.w3.org/2000/svg">
<g clip-path="url(#clip0_17_2153)">
<path d="M12.3007 24H11.6537C10.1744 24 8.80774 23.4838 7.80597 22.5469C6.76227 21.5706 6.1875 20.1958 6.1875 18.6755L6.20087 5.18866C6.20856 2.17987 7.96985 0 10.3903 0H10.4004L10.6633 0.000915525C11.8954 0.00402832 12.9961 0.5755 13.7617 1.61023C14.4582 2.55157 14.8398 3.82983 14.8363 5.20953L14.8044 17.9154C14.8022 18.7397 14.5497 19.5141 14.0931 20.0958C13.5908 20.7358 12.8926 21.0879 12.1263 21.0879C12.1243 21.0879 12.1221 21.0879 12.1201 21.0879C11.3685 21.0859 10.6269 20.7336 10.0851 20.1209C9.55042 19.5165 9.25726 18.7282 9.25928 17.9015L9.28473 7.74591C9.28583 7.35077 9.60645 7.03125 10.0014 7.03125H10.0032C10.3989 7.03217 10.719 7.35388 10.7179 7.74957L10.6924 17.9052C10.6913 18.3805 10.8569 18.8302 11.1586 19.1715C11.4294 19.4777 11.7812 19.6538 12.1236 19.6545H12.1262C12.5321 19.6545 12.8068 19.4136 12.9657 19.2111C13.2259 18.8795 13.3698 18.418 13.3711 17.9117L13.4031 5.20605C13.4057 4.13232 13.1239 3.15802 12.6096 2.46277C12.2633 1.99493 11.6439 1.43665 10.6589 1.43427L10.3962 1.43317C10.394 1.43317 10.3918 1.43317 10.3896 1.43317C9.40906 1.43317 8.78906 1.98688 8.44135 2.45197C7.92352 3.14465 7.63678 4.11749 7.63422 5.19122L7.62067 18.6762C7.62067 20.9302 9.31696 22.5668 11.6537 22.5668H12.3007C14.6376 22.5668 16.3336 20.9302 16.3336 18.6755V7.42621C16.3336 7.03052 16.6545 6.70953 17.0502 6.70953C17.4459 6.70953 17.7669 7.03052 17.7669 7.42621V18.6755C17.7669 20.1958 17.1921 21.5706 16.1488 22.5469C15.1469 23.4838 13.7803 24 12.3007 24Z" fill="black"/>
</g>
<defs>
<clipPath id="clip0_17_2153">
<rect width="24" height="24" fill="white"/>
</clipPath>
</defs>
</svg>
