<svg width="24" height="24" viewBox="0 0 24 24" fill="none" xmlns="http://www.w3.org/2000/svg">
<path d="M19.5157 14.6087H11.6896C10.395 14.6087 9.3418 15.6619 9.3418 16.9565C9.3418 18.2511 10.395 19.3044 11.6896 19.3044H19.5157C20.8103 19.3044 21.8635 18.2511 21.8635 16.9565C21.8635 15.6619 20.8103 14.6087 19.5157 14.6087ZM19.5157 17.7392H11.6896C11.2581 17.7392 10.907 17.3881 10.907 16.9565C10.907 16.525 11.2581 16.1739 11.6896 16.1739H19.5157C19.9472 16.1739 20.2983 16.525 20.2983 16.9565C20.2983 17.3881 19.9472 17.7392 19.5157 17.7392Z" fill="#5F63D7"/>
<path d="M13.255 8.34784H5.42888C4.13429 8.34784 3.08105 9.40107 3.08105 10.6957C3.08105 11.9903 4.13429 13.0435 5.42888 13.0435H13.255C14.5496 13.0435 15.6028 11.9903 15.6028 10.6957C15.6028 9.40107 14.5496 8.34784 13.255 8.34784ZM13.255 11.4783H5.42888C4.99735 11.4783 4.64626 11.1272 4.64626 10.6957C4.64626 10.2641 4.99735 9.91304 5.42888 9.91304H13.255C13.6865 9.91304 14.0376 10.2641 14.0376 10.6957C14.0376 11.1272 13.6865 11.4783 13.255 11.4783Z" fill="#5F63D7"/>
<path d="M21.0811 2.08698H13.2551C11.9605 2.08698 10.9072 3.14021 10.9072 4.4348C10.9072 5.7294 11.9605 6.78263 13.2551 6.78263H21.0811C22.3757 6.78263 23.4289 5.7294 23.4289 4.4348C23.4289 3.14021 22.3757 2.08698 21.0811 2.08698ZM21.0811 5.21738H13.2551C12.8235 5.21738 12.4724 4.86629 12.4724 4.43476C12.4724 4.00323 12.8235 3.65213 13.2551 3.65213H21.0811C21.5126 3.65213 21.8637 4.00323 21.8637 4.43476C21.8637 4.86629 21.5126 5.21738 21.0811 5.21738Z" fill="#5F63D7"/>
</svg>
