<svg width="14" height="14" viewBox="0 0 14 14" fill="none" xmlns="http://www.w3.org/2000/svg">
<path d="M4.90003 9.71476L7.00003 7.61476L9.10003 9.71476L9.71476 9.10003L7.61476 7.00003L9.71476 4.90003L9.10003 4.2853L7.00003 6.3853L4.90003 4.2853L4.28529 4.90003L6.38529 7.00003L4.28529 9.10003L4.90003 9.71476ZM7.001 12.5417C6.23454 12.5417 5.51411 12.3962 4.8397 12.1053C4.16527 11.8145 3.57863 11.4197 3.07975 10.921C2.58086 10.4224 2.18591 9.83598 1.8949 9.16186C1.60388 8.48775 1.45837 7.76746 1.45837 7.001C1.45837 6.23454 1.60382 5.51411 1.89471 4.8397C2.1856 4.16527 2.58037 3.57863 3.07902 3.07975C3.57768 2.58086 4.16407 2.18591 4.83819 1.8949C5.5123 1.60388 6.23259 1.45837 6.99905 1.45837C7.76551 1.45837 8.48595 1.60382 9.16036 1.89471C9.83478 2.1856 10.4214 2.58037 10.9203 3.07902C11.4192 3.57768 11.8141 4.16407 12.1052 4.83819C12.3962 5.5123 12.5417 6.23259 12.5417 6.99905C12.5417 7.76551 12.3962 8.48595 12.1053 9.16036C11.8145 9.83478 11.4197 10.4214 10.921 10.9203C10.4224 11.4192 9.83598 11.8141 9.16186 12.1052C8.48775 12.3962 7.76746 12.5417 7.001 12.5417ZM7.00003 11.6667C8.3028 11.6667 9.40628 11.2146 10.3104 10.3104C11.2146 9.40628 11.6667 8.3028 11.6667 7.00003C11.6667 5.69725 11.2146 4.59378 10.3104 3.68961C9.40628 2.78544 8.3028 2.33336 7.00003 2.33336C5.69725 2.33336 4.59378 2.78544 3.68961 3.68961C2.78544 4.59378 2.33336 5.69725 2.33336 7.00003C2.33336 8.3028 2.78544 9.40628 3.68961 10.3104C4.59378 11.2146 5.69725 11.6667 7.00003 11.6667Z" fill="black"/>
</svg>
