<svg width="24" height="24" viewBox="0 0 24 24" fill="none" xmlns="http://www.w3.org/2000/svg">
<path d="M6.25002 13.75H13.75V12.25H6.25002V13.75ZM6.25002 10.75H17.75V9.25H6.25002V10.75ZM6.25002 7.74995H17.75V6.25H6.25002V7.74995ZM2.50002 21.0384V4.3077C2.50002 3.80257 2.67502 3.375 3.02502 3.025C3.37502 2.675 3.80259 2.5 4.30772 2.5H19.6923C20.1974 2.5 20.625 2.675 20.975 3.025C21.325 3.375 21.5 3.80257 21.5 4.3077V15.6923C21.5 16.1974 21.325 16.625 20.975 16.975C20.625 17.325 20.1974 17.5 19.6923 17.5H6.03847L2.50002 21.0384ZM5.40002 16H19.6923C19.7692 16 19.8397 15.9679 19.9038 15.9038C19.9679 15.8397 20 15.7692 20 15.6923V4.3077C20 4.23077 19.9679 4.16024 19.9038 4.09613C19.8397 4.03203 19.7692 3.99998 19.6923 3.99998H4.30772C4.23079 3.99998 4.16026 4.03203 4.09615 4.09613C4.03205 4.16024 4 4.23077 4 4.3077V17.3846L5.40002 16Z" fill="#5F63D7"/>
</svg>
