<svg width="24" height="24" viewBox="0 0 24 24" fill="none" xmlns="http://www.w3.org/2000/svg">
<g opacity="0.2" clip-path="url(#clip0_1_368)">
<path d="M12.0001 0C5.38337 0 0.000228882 5.38303 0.000228882 11.9997C0.000228882 18.6167 5.38337 24 12.0001 24C18.6167 24 23.9998 18.6166 23.9998 11.9997C23.9998 5.38303 18.6167 0 12.0001 0ZM12.0001 22.2798C6.33188 22.2798 1.72041 17.6681 1.72041 11.9997C1.72041 6.33154 6.33188 1.72018 12.0001 1.72018C17.6682 1.72018 22.2796 6.33154 22.2796 11.9997C22.2796 17.6681 17.6682 22.2798 12.0001 22.2798Z" fill="black"/>
<path d="M18.1703 11.7988H12.5311V5.63463C12.5311 5.15963 12.1461 4.77454 11.671 4.77454C11.196 4.77454 10.8109 5.15963 10.8109 5.63463V12.6589C10.8109 13.1339 11.196 13.519 11.671 13.519H18.1703C18.6454 13.519 19.0304 13.1339 19.0304 12.6589C19.0304 12.1839 18.6453 11.7988 18.1703 11.7988Z" fill="black"/>
</g>
<defs>
<clipPath id="clip0_1_368">
<rect width="24" height="24" fill="white"/>
</clipPath>
</defs>
</svg>
