<svg width="24" height="24" viewBox="0 0 24 24" fill="none" xmlns="http://www.w3.org/2000/svg">
<path d="M17.29 16.2957L12.9944 12.0001L17.29 7.70439C17.5646 7.4298 17.5646 6.98463 17.29 6.71008C17.0154 6.43549 16.5702 6.43549 16.2956 6.71008L12 11.0057L7.70433 6.71003C7.42979 6.43544 6.98457 6.43544 6.70997 6.71003C6.43538 6.98463 6.43538 7.4298 6.70997 7.70439L11.0056 12.0001L6.70997 16.2957C6.43538 16.5703 6.43538 17.0155 6.70997 17.2901C6.84727 17.4274 7.02722 17.496 7.20713 17.496C7.38708 17.496 7.56704 17.4274 7.70433 17.2901L12 12.9944L16.2957 17.2901C16.433 17.4274 16.6129 17.496 16.7929 17.496C16.9728 17.496 17.1528 17.4274 17.29 17.2901C17.5646 17.0155 17.5646 16.5703 17.29 16.2957Z" fill="#FF5252"/>
</svg>
