<svg width="24" height="24" viewBox="0 0 24 24" fill="none" xmlns="http://www.w3.org/2000/svg">
<g clip-path="url(#clip0_79_5345)">
<path d="M23.6908 19.0497L13.8464 2.72352C13.4585 2.08035 12.751 1.68079 12 1.68079C11.2489 1.68079 10.5414 2.08035 10.1535 2.72357L0.309146 19.0497C-0.0916821 19.7145 -0.103541 20.5474 0.278162 21.2233C0.659959 21.8992 1.3793 22.3191 2.15555 22.3191H21.8444C22.6206 22.3191 23.34 21.8992 23.7218 21.2233C24.1035 20.5473 24.0916 19.7144 23.6908 19.0497ZM22.3612 20.4549C22.2561 20.641 22.0581 20.7566 21.8444 20.7566H2.15555C1.94185 20.7566 1.7438 20.641 1.63876 20.455C1.53366 20.2689 1.53694 20.0396 1.64724 19.8566L11.4917 3.53043C11.5985 3.35338 11.7932 3.24336 12 3.24336C12.2067 3.24336 12.4015 3.35338 12.5083 3.53043L22.3526 19.8566C22.463 20.0396 22.4663 20.2689 22.3612 20.4549Z" fill="#FF5252"/>
<path d="M12.0072 8.10962C11.4128 8.10962 10.949 8.42856 10.949 8.99396C10.949 10.7191 11.1519 13.198 11.1519 14.9231C11.1519 15.3725 11.5434 15.561 12.0073 15.561C12.3552 15.561 12.8481 15.3725 12.8481 14.9231C12.8481 13.198 13.051 10.7191 13.051 8.99396C13.051 8.4286 12.5726 8.10962 12.0072 8.10962Z" fill="#FF5252"/>
<path d="M12.0218 16.5613C11.384 16.5613 10.9055 17.0687 10.9055 17.6776C10.9055 18.2719 11.3839 18.7938 12.0218 18.7938C12.6162 18.7938 13.1236 18.2719 13.1236 17.6776C13.1236 17.0687 12.6161 16.5613 12.0218 16.5613Z" fill="#FF5252"/>
</g>
<defs>
<clipPath id="clip0_79_5345">
<rect width="24" height="24" fill="white"/>
</clipPath>
</defs>
</svg>
