<svg width="24" height="22" viewBox="0 0 24 22" fill="none" xmlns="http://www.w3.org/2000/svg">
<g id="team_dashboard_FILL0_wght300_GRAD0_opsz24 1">
<path id="Vector" d="M5.3077 18.6881C4.80898 18.6881 4.38302 18.5295 4.02982 18.2122C3.67661 17.8949 3.5 17.5122 3.5 17.0642V5.04015C3.5 4.59213 3.67661 4.20947 4.02982 3.89217C4.38302 3.57485 4.80898 3.4162 5.3077 3.4162H18.6923C19.191 3.4162 19.6169 3.57485 19.9701 3.89217C20.3233 4.20947 20.5 4.59213 20.5 5.04015V17.0642C20.5 17.5122 20.3233 17.8949 19.9701 18.2122C19.6169 18.5295 19.191 18.6881 18.6923 18.6881H5.3077ZM10.25 17.3406V11.7259H4.99997V17.0642C4.99997 17.1448 5.02883 17.211 5.08653 17.2629C5.14423 17.3147 5.21795 17.3406 5.3077 17.3406H10.25ZM11.75 17.3406H18.6923C18.782 17.3406 18.8557 17.3147 18.9134 17.2629C18.9711 17.211 19 17.1448 19 17.0642V11.7259H11.75V17.3406ZM4.99997 10.3784H19V5.04015C19 4.95952 18.9711 4.89329 18.9134 4.84146C18.8557 4.78962 18.782 4.7637 18.6923 4.7637H5.3077C5.21795 4.7637 5.14423 4.78962 5.08653 4.84146C5.02883 4.89329 4.99997 4.95952 4.99997 5.04015V10.3784Z" fill="#5F63D7"/>
</g>
</svg>
