<svg width="24" height="24" viewBox="0 0 24 24" fill="none" xmlns="http://www.w3.org/2000/svg">
<path d="M9.39997 16.1538L12 13.5538L14.6 16.1538L15.6538 15.1L13.0538 12.5L15.6538 9.89999L14.6 8.84617L12 11.4462L9.39997 8.84617L8.34615 9.89999L10.9461 12.5L8.34615 15.1L9.39997 16.1538ZM7.3077 20.5C6.80257 20.5 6.375 20.325 6.025 19.975C5.675 19.625 5.5 19.1974 5.5 18.6923V5.99999H4.5V4.50002H8.99997V3.61542H15V4.50002H19.5V5.99999H18.5V18.6923C18.5 19.1974 18.325 19.625 17.975 19.975C17.625 20.325 17.1974 20.5 16.6922 20.5H7.3077ZM17 5.99999H6.99997V18.6923C6.99997 18.7692 7.03203 18.8397 7.09613 18.9038C7.16024 18.9679 7.23077 19 7.3077 19H16.6922C16.7692 19 16.8397 18.9679 16.9038 18.9038C16.9679 18.8397 17 18.7692 17 18.6923V5.99999Z" fill="#5f63d7"/>
</svg>
