<svg width="24" height="24" viewBox="0 0 24 24" fill="none" xmlns="http://www.w3.org/2000/svg">
<g clip-path="url(#clip0_79_4908)">
<path d="M18.75 9.25V7.75C18.75 7.48478 18.6446 7.23043 18.4571 7.04289C18.2696 6.85536 18.0152 6.75 17.75 6.75H12.75V1.75C12.75 1.48478 12.6446 1.23043 12.4571 1.04289C12.2696 0.855357 12.0152 0.75 11.75 0.75H7.75C7.48478 0.75 7.23043 0.855357 7.04289 1.04289C6.85536 1.23043 6.75 1.48478 6.75 1.75V6.75H1.75C1.48478 6.75 1.23043 6.85536 1.04289 7.04289C0.855357 7.23043 0.75 7.48478 0.75 7.75V11.75C0.75 12.0152 0.855357 12.2696 1.04289 12.4571C1.23043 12.6446 1.48478 12.75 1.75 12.75H6.75V17.75C6.75 18.0152 6.85536 18.2696 7.04289 18.4571C7.23043 18.6446 7.48478 18.75 7.75 18.75H9.25" stroke="#5F63D7" stroke-width="1.5" stroke-linecap="round" stroke-linejoin="round"/>
<path d="M18.164 12.789C18.442 12.5109 18.772 12.2902 19.1352 12.1396C19.4984 11.989 19.8877 11.9114 20.281 11.9113C20.6742 11.9111 21.0636 11.9884 21.4269 12.1388C21.7902 12.2891 22.1204 12.5096 22.3985 12.7875C22.6767 13.0654 22.8973 13.3954 23.0479 13.7587C23.1985 14.1219 23.2761 14.5112 23.2763 14.9044C23.2764 15.2976 23.1991 15.687 23.0487 16.0504C22.8984 16.4137 22.678 16.7439 22.4 17.022L17.109 22.313C16.5636 22.8905 15.8111 23.2277 15.0171 23.2504C14.223 23.2731 13.4525 22.9794 12.875 22.434C12.2975 21.8886 11.9603 21.1361 11.9376 20.3421C11.9149 19.548 12.2086 18.7775 12.754 18.2C12.793 18.159 12.834 18.118 12.876 18.079L18.164 12.789Z" stroke="#5F63D7" stroke-width="1.5" stroke-linecap="round" stroke-linejoin="round"/>
<path d="M15.518 15.435L19.751 19.667" stroke="#5F63D7" stroke-width="1.5" stroke-linecap="round" stroke-linejoin="round"/>
</g>
<defs>
<clipPath id="clip0_79_4908">
<rect width="24" height="24" fill="white"/>
</clipPath>
</defs>
</svg>
