<svg width="24" height="24" viewBox="0 0 24 24" fill="none" xmlns="http://www.w3.org/2000/svg">
<path d="M5.15376 19H6.39028L15.65 9.74036L14.4134 8.50381L5.15376 17.7635V19ZM18.8576 8.65576L15.4826 5.31158L16.7865 4.00776C17.0801 3.71417 17.4371 3.56738 17.8576 3.56738C18.2781 3.56738 18.6352 3.71417 18.9287 4.00776L20.146 5.22503C20.4396 5.51862 20.5915 5.87053 20.6018 6.28078C20.612 6.69103 20.4704 7.04295 20.1768 7.33653L18.8576 8.65576ZM17.773 9.75573L7.02873 20.5H3.65381V17.125L14.398 6.38078L17.773 9.75573ZM15.0269 9.11728L14.4134 8.50381L15.65 9.74036L15.0269 9.11728Z" fill="#111256"/>
</svg>
