<svg width="12" height="18" viewBox="0 0 12 18" fill="none" xmlns="http://www.w3.org/2000/svg">
<path d="M2.34621 17.5V16H5.25006V11.6884C3.81672 11.4615 2.65711 10.8157 1.77121 9.75093C0.885324 8.68619 0.442383 7.43588 0.442383 5.99998V0.5H11.5577V5.99998C11.5577 7.43588 11.1147 8.68619 10.2289 9.75093C9.34296 10.8157 8.18334 11.4615 6.75001 11.6884V16H9.65386V17.5H2.34621ZM6.00003 10.25C6.99107 10.25 7.85582 9.91538 8.59428 9.24613C9.33275 8.57689 9.7898 7.74484 9.96543 6.74995H2.03463C2.21027 7.74484 2.66732 8.57689 3.40578 9.24613C4.14425 9.91538 5.009 10.25 6.00003 10.25ZM1.94233 5.25H10.0577V1.99998H1.94233V5.25Z" fill="#5F63D7"/>
</svg>
