<svg width="24" height="24" viewBox="0 0 24 24" fill="none" xmlns="http://www.w3.org/2000/svg">
<path d="M5.3077 20.5C4.80257 20.5 4.375 20.325 4.025 19.975C3.675 19.625 3.5 19.1974 3.5 18.6923V5.3077C3.5 4.80257 3.675 4.375 4.025 4.025C4.375 3.675 4.80257 3.5 5.3077 3.5H18.6923C19.1974 3.5 19.625 3.675 19.975 4.025C20.325 4.375 20.5 4.80257 20.5 5.3077V18.6923C20.5 19.1974 20.325 19.625 19.975 19.975C19.625 20.325 19.1974 20.5 18.6923 20.5H5.3077ZM5.3077 19H8.66155V15.3384H4.99997V18.6923C4.99997 18.782 5.02883 18.8557 5.08653 18.9134C5.14423 18.9711 5.21795 19 5.3077 19ZM10.1615 19H13.8385V15.3384H10.1615V19ZM15.3384 19H18.6923C18.782 19 18.8557 18.9711 18.9134 18.9134C18.9711 18.8557 19 18.782 19 18.6923V15.3384H15.3384V19ZM4.99997 13.8385H8.66155V10.1615H4.99997V13.8385ZM10.1615 13.8385H13.8385V10.1615H10.1615V13.8385ZM15.3384 13.8385H19V10.1615H15.3384V13.8385ZM4.99997 8.66155H8.66155V4.99998H5.3077C5.21795 4.99998 5.14423 5.02883 5.08653 5.08653C5.02883 5.14423 4.99997 5.21795 4.99997 5.3077V8.66155ZM10.1615 8.66155H13.8385V4.99998H10.1615V8.66155ZM15.3384 8.66155H19V5.3077C19 5.21795 18.9711 5.14423 18.9134 5.08653C18.8557 5.02883 18.782 4.99998 18.6923 4.99998H15.3384V8.66155Z" fill="#5F63D7"/>
</svg>
