<svg width="24" height="24" viewBox="0 0 24 24" fill="none" xmlns="http://www.w3.org/2000/svg">
<g clip-path="url(#clip0_79_4887)">
<path d="M20.668 11.9731C20.9265 13.9887 20.5648 16.0352 19.631 17.8401C18.6973 19.645 17.2358 21.1225 15.4413 22.076C13.6467 23.0295 11.6043 23.4136 9.58599 23.1772C7.56768 22.9408 5.66928 22.0952 4.14363 20.7529C2.61798 19.4105 1.53748 17.6353 1.04605 15.6635C0.554615 13.6917 0.675567 11.617 1.3928 9.71563C2.11003 7.81431 3.38949 6.17661 5.06079 5.02066C6.73208 3.86471 8.71589 3.24537 10.748 3.24512C11.1353 3.24533 11.5222 3.26736 11.907 3.31112" stroke="#5F63D7" stroke-width="1.5" stroke-linecap="round" stroke-linejoin="round"/>
<path d="M10.748 7.95093V13.2119L7.508 17.0369" stroke="#5F63D7" stroke-width="1.5" stroke-linecap="round" stroke-linejoin="round"/>
<path d="M23.252 4.0999C23.252 3.97313 23.2016 3.85154 23.112 3.7619C23.0224 3.67226 22.9008 3.6219 22.774 3.6219H20.382V1.2329C20.382 1.16979 20.3695 1.1073 20.3452 1.04905C20.321 0.990792 20.2854 0.937919 20.2406 0.89348C20.1958 0.849041 20.1426 0.813916 20.0842 0.790131C20.0257 0.766345 19.9631 0.754371 19.9 0.7549H17.991C17.8642 0.7549 17.7427 0.80526 17.653 0.894903C17.5634 0.984545 17.513 1.10613 17.513 1.2329V3.6249H15.122C15.0591 3.62477 14.9969 3.63703 14.9388 3.661C14.8807 3.68496 14.8279 3.72015 14.7834 3.76455C14.7389 3.80895 14.7036 3.86169 14.6795 3.91975C14.6554 3.9778 14.643 4.04004 14.643 4.1029V6.0159C14.643 6.07876 14.6554 6.14099 14.6795 6.19905C14.7036 6.25711 14.7389 6.30985 14.7834 6.35425C14.8279 6.39865 14.8807 6.43384 14.9388 6.4578C14.9969 6.48176 15.0591 6.49403 15.122 6.4939H17.513V8.8849C17.5129 8.94776 17.5251 9.01002 17.5491 9.06813C17.5731 9.12624 17.6083 9.17905 17.6527 9.22354C17.6971 9.26804 17.7498 9.30334 17.8079 9.32742C17.8659 9.3515 17.9281 9.3639 17.991 9.3639H19.9C19.9629 9.3639 20.0251 9.3515 20.0832 9.32742C20.1412 9.30334 20.194 9.26804 20.2384 9.22354C20.2828 9.17905 20.3179 9.12624 20.3419 9.06813C20.3659 9.01002 20.3781 8.94776 20.378 8.8849V6.4939H22.77C22.8968 6.4939 23.0184 6.44354 23.108 6.3539C23.1976 6.26425 23.248 6.14267 23.248 6.0159L23.252 4.0999Z" stroke="#5F63D7" stroke-width="1.5" stroke-linecap="round" stroke-linejoin="round"/>
</g>
<defs>
<clipPath id="clip0_79_4887">
<rect width="24" height="24" fill="white"/>
</clipPath>
</defs>
</svg>
