<svg width="24" height="24" viewBox="0 0 24 24" fill="none" xmlns="http://www.w3.org/2000/svg">
<g clip-path="url(#clip0_1_167)">
<path d="M8.52315 20.5269H2.30421C2.13298 20.527 1.96341 20.4934 1.80518 20.428C1.64695 20.3626 1.50317 20.2666 1.38205 20.1456C1.26093 20.0245 1.16485 19.8808 1.0993 19.7226C1.03374 19.5645 1 19.3949 1 19.2237V5.53635C1 5.19045 1.13741 4.85872 1.38199 4.61414C1.62658 4.36955 1.95831 4.23214 2.30421 4.23214H5.56375C5.57855 3.37757 5.92842 2.56299 6.538 1.96388C7.14758 1.36476 7.96809 1.02905 8.8228 1.02905C9.67751 1.02905 10.498 1.36476 11.1076 1.96388C11.7172 2.56299 12.067 3.37757 12.0819 4.23214H15.3404C15.5116 4.23214 15.6812 4.26589 15.8394 4.33144C15.9975 4.39699 16.1413 4.49308 16.2623 4.6142C16.3833 4.73532 16.4793 4.8791 16.5447 5.03733C16.6102 5.19556 16.6438 5.36513 16.6436 5.53635V6.75843" stroke="#5F63D7" stroke-width="1.5" stroke-linecap="round" stroke-linejoin="round"/>
<path d="M8.82131 4.151C8.68633 4.151 8.5769 4.04157 8.5769 3.90659C8.5769 3.7716 8.68633 3.66217 8.82131 3.66217" stroke="#5F63D7" stroke-width="1.5"/>
<path d="M8.82129 4.151C8.95628 4.151 9.06571 4.04157 9.06571 3.90659C9.06571 3.7716 8.95628 3.66217 8.82129 3.66217" stroke="#5F63D7" stroke-width="1.5"/>
<path d="M18.8395 9.28375V15.3248L22.4627 19.1729C22.7479 19.5148 22.9285 19.9317 22.9827 20.3736C23.037 20.8155 22.9627 21.2637 22.7687 21.6644C22.5747 22.0652 22.2693 22.4015 21.889 22.6331C21.5088 22.8647 21.0698 22.9817 20.6247 22.9701H13.5757C13.1306 22.9819 12.6914 22.865 12.311 22.6335C11.9306 22.402 11.625 22.0657 11.4309 21.6649C11.2368 21.2641 11.1624 20.8158 11.2167 20.3738C11.2709 19.9318 11.4515 19.5148 11.7367 19.1729L15.3629 15.3248V9.28375H18.8395Z" stroke="#5F63D7" stroke-width="1.5" stroke-linecap="round" stroke-linejoin="round"/>
<path d="M11.7397 19.1729H22.4657" stroke="#5F63D7" stroke-width="1.5" stroke-linecap="round" stroke-linejoin="round"/>
<path d="M4.57043 8.06366H12.4172" stroke="#5F63D7" stroke-width="1.5" stroke-linecap="round" stroke-linejoin="round"/>
<path d="M4.57043 11.5314H10.4619" stroke="#5F63D7" stroke-width="1.5" stroke-linecap="round" stroke-linejoin="round"/>
<path d="M4.57043 14.9992H8.01768" stroke="#5F63D7" stroke-width="1.5" stroke-linecap="round" stroke-linejoin="round"/>
</g>
<defs>
<clipPath id="clip0_1_167">
<rect width="24" height="24" fill="white"/>
</clipPath>
</defs>
</svg>
