<svg width="24" height="24" viewBox="0 0 24 24" fill="none" xmlns="http://www.w3.org/2000/svg">
<g clip-path="url(#clip0_79_5563)">
<path d="M23.25 4.875H0.75" stroke="#5F63D7" stroke-width="1.5" stroke-linecap="round" stroke-linejoin="round"/>
<path d="M23.25 10.9C21.32 9.67197 18.095 7.09997 14.425 9.84997C13.7326 10.3693 12.8905 10.65 12.025 10.65C11.1595 10.65 10.3174 10.3693 9.625 9.84997C6.057 7.17597 2.939 9.50897 0.75 10.9" stroke="#5F63D7" stroke-width="1.5" stroke-linecap="round" stroke-linejoin="round"/>
<path d="M1.52539 18C1.31829 18 1.15039 17.8321 1.15039 17.625C1.15039 17.4179 1.31829 17.25 1.52539 17.25" stroke="#5F63D7" stroke-width="1.5"/>
<path d="M1.52539 18C1.7325 18 1.90039 17.8321 1.90039 17.625C1.90039 17.4179 1.7325 17.25 1.52539 17.25" stroke="#5F63D7" stroke-width="1.5"/>
<path d="M4.52539 14.25C4.31829 14.25 4.15039 14.0821 4.15039 13.875C4.15039 13.6679 4.31829 13.5 4.52539 13.5" stroke="#5F63D7" stroke-width="1.5"/>
<path d="M4.52539 14.25C4.7325 14.25 4.90039 14.0821 4.90039 13.875C4.90039 13.6679 4.7325 13.5 4.52539 13.5" stroke="#5F63D7" stroke-width="1.5"/>
<path d="M8.27539 18C8.06829 18 7.90039 17.8321 7.90039 17.625C7.90039 17.4179 8.06829 17.25 8.27539 17.25" stroke="#5F63D7" stroke-width="1.5"/>
<path d="M8.27539 18C8.4825 18 8.65039 17.8321 8.65039 17.625C8.65039 17.4179 8.4825 17.25 8.27539 17.25" stroke="#5F63D7" stroke-width="1.5"/>
<path d="M12.0254 14.25C11.8183 14.25 11.6504 14.0821 11.6504 13.875C11.6504 13.6679 11.8183 13.5 12.0254 13.5" stroke="#5F63D7" stroke-width="1.5"/>
<path d="M12.0254 14.25C12.2325 14.25 12.4004 14.0821 12.4004 13.875C12.4004 13.6679 12.2325 13.5 12.0254 13.5" stroke="#5F63D7" stroke-width="1.5"/>
<path d="M15.7754 18C15.5683 18 15.4004 17.8321 15.4004 17.625C15.4004 17.4179 15.5683 17.25 15.7754 17.25" stroke="#5F63D7" stroke-width="1.5"/>
<path d="M15.7754 18C15.9825 18 16.1504 17.8321 16.1504 17.625C16.1504 17.4179 15.9825 17.25 15.7754 17.25" stroke="#5F63D7" stroke-width="1.5"/>
<path d="M19.5254 14.25C19.3183 14.25 19.1504 14.0821 19.1504 13.875C19.1504 13.6679 19.3183 13.5 19.5254 13.5" stroke="#5F63D7" stroke-width="1.5"/>
<path d="M19.5254 14.25C19.7325 14.25 19.9004 14.0821 19.9004 13.875C19.9004 13.6679 19.7325 13.5 19.5254 13.5" stroke="#5F63D7" stroke-width="1.5"/>
<path d="M22.5254 18C22.3183 18 22.1504 17.8321 22.1504 17.625C22.1504 17.4179 22.3183 17.25 22.5254 17.25" stroke="#5F63D7" stroke-width="1.5"/>
<path d="M22.5254 18C22.7325 18 22.9004 17.8321 22.9004 17.625C22.9004 17.4179 22.7325 17.25 22.5254 17.25" stroke="#5F63D7" stroke-width="1.5"/>
</g>
<defs>
<clipPath id="clip0_79_5563">
<rect width="24" height="24" fill="white"/>
</clipPath>
</defs>
</svg>
