<svg width="24" height="24" viewBox="0 0 24 24" fill="none" xmlns="http://www.w3.org/2000/svg">
<g clip-path="url(#clip0_17_2024)">
<path d="M23.25 4.875H0.75" stroke="#5F63D7" stroke-width="1.5" stroke-linecap="round" stroke-linejoin="round"/>
<path d="M23.25 10.9C21.32 9.67197 18.095 7.09997 14.425 9.84997C13.7326 10.3693 12.8905 10.65 12.025 10.65C11.1595 10.65 10.3174 10.3693 9.625 9.84997C6.057 7.17597 2.939 9.50897 0.75 10.9" stroke="#5F63D7" stroke-width="1.5" stroke-linecap="round" stroke-linejoin="round"/>
<path d="M1.5249 18C1.3178 18 1.1499 17.8321 1.1499 17.625C1.1499 17.4179 1.3178 17.25 1.5249 17.25" stroke="#5F63D7" stroke-width="1.5"/>
<path d="M1.5249 18C1.73201 18 1.8999 17.8321 1.8999 17.625C1.8999 17.4179 1.73201 17.25 1.5249 17.25" stroke="#5F63D7" stroke-width="1.5"/>
<path d="M4.5249 14.25C4.3178 14.25 4.1499 14.0821 4.1499 13.875C4.1499 13.6679 4.3178 13.5 4.5249 13.5" stroke="#5F63D7" stroke-width="1.5"/>
<path d="M4.5249 14.25C4.73201 14.25 4.8999 14.0821 4.8999 13.875C4.8999 13.6679 4.73201 13.5 4.5249 13.5" stroke="#5F63D7" stroke-width="1.5"/>
<path d="M8.2749 18C8.0678 18 7.8999 17.8321 7.8999 17.625C7.8999 17.4179 8.0678 17.25 8.2749 17.25" stroke="#5F63D7" stroke-width="1.5"/>
<path d="M8.2749 18C8.48201 18 8.6499 17.8321 8.6499 17.625C8.6499 17.4179 8.48201 17.25 8.2749 17.25" stroke="#5F63D7" stroke-width="1.5"/>
<path d="M12.0249 14.25C11.8178 14.25 11.6499 14.0821 11.6499 13.875C11.6499 13.6679 11.8178 13.5 12.0249 13.5" stroke="#5F63D7" stroke-width="1.5"/>
<path d="M12.0249 14.25C12.232 14.25 12.3999 14.0821 12.3999 13.875C12.3999 13.6679 12.232 13.5 12.0249 13.5" stroke="#5F63D7" stroke-width="1.5"/>
<path d="M15.7749 18C15.5678 18 15.3999 17.8321 15.3999 17.625C15.3999 17.4179 15.5678 17.25 15.7749 17.25" stroke="#5F63D7" stroke-width="1.5"/>
<path d="M15.7749 18C15.982 18 16.1499 17.8321 16.1499 17.625C16.1499 17.4179 15.982 17.25 15.7749 17.25" stroke="#5F63D7" stroke-width="1.5"/>
<path d="M19.5249 14.25C19.3178 14.25 19.1499 14.0821 19.1499 13.875C19.1499 13.6679 19.3178 13.5 19.5249 13.5" stroke="#5F63D7" stroke-width="1.5"/>
<path d="M19.5249 14.25C19.732 14.25 19.8999 14.0821 19.8999 13.875C19.8999 13.6679 19.732 13.5 19.5249 13.5" stroke="#5F63D7" stroke-width="1.5"/>
<path d="M22.5249 18C22.3178 18 22.1499 17.8321 22.1499 17.625C22.1499 17.4179 22.3178 17.25 22.5249 17.25" stroke="#5F63D7" stroke-width="1.5"/>
<path d="M22.5249 18C22.732 18 22.8999 17.8321 22.8999 17.625C22.8999 17.4179 22.732 17.25 22.5249 17.25" stroke="#5F63D7" stroke-width="1.5"/>
</g>
<defs>
<clipPath id="clip0_17_2024">
<rect width="24" height="24" fill="white"/>
</clipPath>
</defs>
</svg>
