<svg width="30" height="30" viewBox="0 0 30 30" fill="none" xmlns="http://www.w3.org/2000/svg">
<path d="M27.8125 17.8125H15.3125C14.6221 17.8125 14.0625 18.3721 14.0625 19.0625V27.8125C14.0625 28.5029 14.6221 29.0625 15.3125 29.0625H27.8125C28.5029 29.0625 29.0625 28.5029 29.0625 27.8125V19.0625C29.0625 18.3721 28.5029 17.8125 27.8125 17.8125Z" stroke="#5F63D7" stroke-width="1.5" stroke-linecap="round" stroke-linejoin="round"/>
<path d="M20 14.0625H23.125C23.4565 14.0625 23.7745 14.1942 24.0089 14.4286C24.2433 14.663 24.375 14.981 24.375 15.3125V17.8125H18.75V15.3125C18.75 14.981 18.8817 14.663 19.1161 14.4286C19.3505 14.1942 19.6685 14.0625 20 14.0625Z" stroke="#5F63D7" stroke-width="1.5" stroke-linecap="round" stroke-linejoin="round"/>
<path d="M21.5625 21.5625V25.3125" stroke="#5F63D7" stroke-width="1.5" stroke-linecap="round" stroke-linejoin="round"/>
<path d="M19.6875 23.4375H23.4375" stroke="#5F63D7" stroke-width="1.5" stroke-linecap="round" stroke-linejoin="round"/>
<path d="M7 10C7 11.0609 7.42143 12.0783 8.17157 12.8284C8.92172 13.5786 9.93913 14 11 14C12.0609 14 13.0783 13.5786 13.8284 12.8284C14.5786 12.0783 15 11.0609 15 10C15 8.93913 14.5786 7.92172 13.8284 7.17157C13.0783 6.42143 12.0609 6 11 6C9.93913 6 8.92172 6.42143 8.17157 7.17157C7.42143 7.92172 7 8.93913 7 10Z" stroke="#5F63D7" stroke-width="1.5" stroke-linecap="round" stroke-linejoin="round"/>
<path d="M13 16H8.6C6.84957 16 5.17084 16.7375 3.9331 18.0503C2.69536 19.363 2 21.1435 2 23" stroke="#5F63D7" stroke-width="1.5" stroke-linecap="round" stroke-linejoin="round"/>
<path d="M7.2205 6.98882L4 3.15837C6.01009 1.75613 8.47146 0.997479 11.0026 1.00001C13.5337 1.00253 15.9933 1.7661 18 3.17235L14.7764 7" stroke="#5F63D7" stroke-width="1.5" stroke-linecap="round" stroke-linejoin="round"/>
</svg>
