<svg width="24" height="24" viewBox="0 0 24 24" fill="none" xmlns="http://www.w3.org/2000/svg">
<g clip-path="url(#clip0_251_759)">
<path d="M8.923 5.46899L6.791 8.31099C6.67165 8.47012 6.49398 8.57533 6.29707 8.60346C6.10015 8.63159 5.90013 8.58034 5.741 8.46099C5.71275 8.43953 5.68602 8.41614 5.661 8.39099L4.5 7.23499" stroke="#5F63D7" stroke-width="1.5" stroke-linecap="round" stroke-linejoin="round"/>
<path d="M8.923 12.219L6.791 15.061C6.73191 15.1398 6.65787 15.2062 6.57312 15.2564C6.48837 15.3065 6.39457 15.3395 6.29707 15.3535C6.19956 15.3674 6.10027 15.362 6.00486 15.3375C5.90945 15.3131 5.81979 15.2701 5.741 15.211C5.71275 15.1895 5.68602 15.1661 5.661 15.141L4.5 13.984" stroke="#5F63D7" stroke-width="1.5" stroke-linecap="round" stroke-linejoin="round"/>
<path d="M23.25 15.922C23.2501 15.8344 23.233 15.7476 23.1995 15.6666C23.166 15.5856 23.1169 15.512 23.0549 15.4501C22.993 15.3881 22.9194 15.339 22.8384 15.3055C22.7574 15.272 22.6706 15.2549 22.583 15.255H19.25V11.922C19.2501 11.8344 19.233 11.7476 19.1995 11.6666C19.166 11.5856 19.1169 11.512 19.0549 11.4501C18.993 11.3881 18.9194 11.339 18.8384 11.3055C18.7574 11.272 18.6706 11.2549 18.583 11.255H15.917C15.8294 11.2549 15.7426 11.272 15.6616 11.3055C15.5806 11.339 15.507 11.3881 15.4451 11.4501C15.3831 11.512 15.334 11.5856 15.3005 11.6666C15.267 11.7476 15.2499 11.8344 15.25 11.922V15.255H11.917C11.8294 15.2549 11.7426 15.272 11.6616 15.3055C11.5806 15.339 11.507 15.3881 11.4451 15.4501C11.3831 15.512 11.334 15.5856 11.3005 15.6666C11.267 15.7476 11.2499 15.8344 11.25 15.922V18.588C11.2499 18.6756 11.267 18.7624 11.3005 18.8434C11.334 18.9244 11.3831 18.998 11.4451 19.0599C11.507 19.1219 11.5806 19.171 11.6616 19.2045C11.7426 19.238 11.8294 19.2551 11.917 19.255H15.25V22.588C15.2499 22.6756 15.267 22.7624 15.3005 22.8434C15.334 22.9244 15.3831 22.998 15.4451 23.0599C15.507 23.1219 15.5806 23.171 15.6616 23.2045C15.7426 23.238 15.8294 23.2551 15.917 23.255H18.583C18.6706 23.2551 18.7574 23.238 18.8384 23.2045C18.9194 23.171 18.993 23.1219 19.0549 23.0599C19.1169 22.998 19.166 22.9244 19.1995 22.8434C19.233 22.7624 19.2501 22.6756 19.25 22.588V19.255H22.583C22.6706 19.2551 22.7574 19.238 22.8384 19.2045C22.9194 19.171 22.993 19.1219 23.0549 19.0599C23.1169 18.998 23.166 18.9244 23.1995 18.8434C23.233 18.7624 23.2501 18.6756 23.25 18.588V15.922Z" stroke="#5F63D7" stroke-width="1.5" stroke-linecap="round" stroke-linejoin="round"/>
<path d="M8.25 20.245H2.25C1.85218 20.245 1.47064 20.087 1.18934 19.8057C0.908035 19.5243 0.75 19.1428 0.75 18.745V2.24499C0.75 1.84717 0.908035 1.46564 1.18934 1.18433C1.47064 0.90303 1.85218 0.744995 2.25 0.744995H12.879C13.2767 0.745345 13.658 0.90361 13.939 1.185L16.811 4.056C16.9503 4.19535 17.0607 4.36078 17.136 4.54283C17.2114 4.72487 17.2501 4.91998 17.25 5.117V8.245" stroke="#5F63D7" stroke-width="1.5" stroke-linecap="round" stroke-linejoin="round"/>
<path d="M12.252 1.10199V5.74499H17.25" stroke="#5F63D7" stroke-width="1.5" stroke-linecap="round" stroke-linejoin="round"/>
</g>
<defs>
<clipPath id="clip0_251_759">
<rect width="24" height="24" fill="white"/>
</clipPath>
</defs>
</svg>
