<svg width="24" height="22" viewBox="0 0 24 22" fill="none" xmlns="http://www.w3.org/2000/svg">
<g clip-path="url(#clip0_12_1104)">
<g clip-path="url(#clip1_12_1104)">
<path d="M8.52315 18.5201H2.30421C2.13298 18.5202 1.96341 18.49 1.80518 18.4312C1.64695 18.3725 1.50317 18.2862 1.38205 18.1775C1.26093 18.0687 1.16485 17.9397 1.0993 17.7975C1.03374 17.6555 1 17.5031 1 17.3493V5.05329C1 4.74255 1.13741 4.44454 1.38199 4.22482C1.62658 4.00509 1.95831 3.88165 2.30421 3.88165H5.56375C5.57855 3.11395 5.92842 2.38217 6.538 1.84396C7.14758 1.30574 7.96809 1.00415 8.8228 1.00415C9.67751 1.00415 10.498 1.30574 11.1076 1.84396C11.7172 2.38217 12.067 3.11395 12.0819 3.88165H15.3404C15.5116 3.88165 15.6812 3.91197 15.8394 3.97086C15.9975 4.02975 16.1413 4.11607 16.2623 4.22488C16.3833 4.33368 16.4793 4.46285 16.5447 4.605C16.6102 4.74714 16.6438 4.89948 16.6436 5.05329V6.15115" stroke="#5F63D7" stroke-width="1.5" stroke-linecap="round" stroke-linejoin="round"/>
<path d="M8.82131 3.80877C8.68633 3.80877 8.5769 3.71046 8.5769 3.5892C8.5769 3.46794 8.68633 3.36963 8.82131 3.36963" stroke="#5F63D7" stroke-width="1.5"/>
<path d="M8.82129 3.80877C8.95628 3.80877 9.06571 3.71046 9.06571 3.5892C9.06571 3.46794 8.95628 3.36963 8.82129 3.36963" stroke="#5F63D7" stroke-width="1.5"/>
<path d="M18.8395 8.4198V13.8468L22.4627 17.3037C22.7479 17.6109 22.9285 17.9854 22.9827 18.3824C23.037 18.7794 22.9627 19.182 22.7687 19.542C22.5747 19.902 22.2693 20.2042 21.889 20.4122C21.5088 20.6203 21.0698 20.7254 20.6247 20.715H13.5757C13.1306 20.7256 12.6914 20.6205 12.311 20.4126C11.9306 20.2046 11.625 19.9025 11.4309 19.5424C11.2368 19.1824 11.1624 18.7796 11.2167 18.3826C11.2709 17.9855 11.4515 17.6109 11.7367 17.3037L15.3629 13.8468V8.4198H18.8395Z" stroke="#5F63D7" stroke-width="1.5" stroke-linecap="round" stroke-linejoin="round"/>
<path d="M11.7397 17.3037H22.4657" stroke="#5F63D7" stroke-width="1.5" stroke-linecap="round" stroke-linejoin="round"/>
<path d="M4.57056 7.32373H12.4173" stroke="#5F63D7" stroke-width="1.5" stroke-linecap="round" stroke-linejoin="round"/>
<path d="M4.57056 10.439H10.462" stroke="#5F63D7" stroke-width="1.5" stroke-linecap="round" stroke-linejoin="round"/>
<path d="M4.57056 13.5543H8.01781" stroke="#5F63D7" stroke-width="1.5" stroke-linecap="round" stroke-linejoin="round"/>
</g>
</g>
<defs>
<clipPath id="clip0_12_1104">
<rect width="24" height="21.5604" fill="white" transform="translate(0 0.0797119)"/>
</clipPath>
<clipPath id="clip1_12_1104">
<rect width="24" height="21.5604" fill="white" transform="translate(0 0.0797119)"/>
</clipPath>
</defs>
</svg>
