<svg width="24" height="24" viewBox="0 0 24 24" fill="none" xmlns="http://www.w3.org/2000/svg">
<g clip-path="url(#clip0_1_216)">
<path d="M13.5 17.25V20.517C13.5001 20.8759 13.4295 21.2314 13.2922 21.563C13.1549 21.8947 12.9536 22.196 12.6998 22.4498C12.446 22.7036 12.1447 22.9049 11.813 23.0422C11.4814 23.1795 11.1259 23.2501 10.767 23.25H4.233C3.87406 23.2501 3.51861 23.1795 3.18697 23.0422C2.85533 22.9049 2.55399 22.7036 2.30018 22.4498C2.04638 22.196 1.84507 21.8947 1.70777 21.563C1.57047 21.2314 1.49987 20.8759 1.5 20.517V4.983C1.49987 4.62406 1.57047 4.26861 1.70777 3.93697C1.84507 3.60533 2.04638 3.30399 2.30018 3.05018C2.55399 2.79638 2.85533 2.59507 3.18697 2.45777C3.51861 2.32047 3.87406 2.24987 4.233 2.25H9" stroke="#5F63D7" stroke-width="1.5" stroke-linecap="round" stroke-linejoin="round"/>
<path d="M1.5 18.769H13.5" stroke="#5F63D7" stroke-width="1.5" stroke-linecap="round" stroke-linejoin="round"/>
<path d="M22.5 6C22.5 5.80109 22.421 5.61032 22.2803 5.46967C22.1397 5.32902 21.9489 5.25 21.75 5.25H18V1.5C18 1.30109 17.921 1.11032 17.7803 0.96967C17.6397 0.829018 17.4489 0.75 17.25 0.75H14.25C14.0511 0.75 13.8603 0.829018 13.7197 0.96967C13.579 1.11032 13.5 1.30109 13.5 1.5V5.25H9.75C9.55109 5.25 9.36032 5.32902 9.21967 5.46967C9.07902 5.61032 9 5.80109 9 6V9C9 9.19891 9.07902 9.38968 9.21967 9.53033C9.36032 9.67098 9.55109 9.75 9.75 9.75H13.5V13.5C13.5 13.6989 13.579 13.8897 13.7197 14.0303C13.8603 14.171 14.0511 14.25 14.25 14.25H17.25C17.4489 14.25 17.6397 14.171 17.7803 14.0303C17.921 13.8897 18 13.6989 18 13.5V9.75H21.75C21.9489 9.75 22.1397 9.67098 22.2803 9.53033C22.421 9.38968 22.5 9.19891 22.5 9V6Z" stroke="#5F63D7" stroke-width="1.5" stroke-linecap="round" stroke-linejoin="round"/>
</g>
<defs>
<clipPath id="clip0_1_216">
<rect width="24" height="24" fill="white"/>
</clipPath>
</defs>
</svg>
