<svg width="24" height="24" viewBox="0 0 24 24" fill="none" xmlns="http://www.w3.org/2000/svg">
<g clip-path="url(#clip0_1_67)">
<path d="M7.5 3.74999H4.636C4.22039 3.7329 3.81492 3.88112 3.50832 4.16223C3.20172 4.44334 3.01895 4.83445 3 5.24999V21.75C3.01895 22.1655 3.20172 22.5566 3.50832 22.8377C3.81492 23.1189 4.22039 23.2671 4.636 23.25H19.364C19.7796 23.2671 20.1851 23.1189 20.4917 22.8377C20.7983 22.5566 20.981 22.1655 21 21.75V5.24999C20.981 4.83445 20.7983 4.44334 20.4917 4.16223C20.1851 3.88112 19.7796 3.7329 19.364 3.74999H16.5" stroke="#6064D8" stroke-width="1.5" stroke-linecap="round" stroke-linejoin="round"/>
<path d="M16.5 13.5C16.5 13.3011 16.421 13.1103 16.2803 12.9697C16.1397 12.829 15.9489 12.75 15.75 12.75H13.5V10.5C13.5 10.3011 13.421 10.1103 13.2803 9.96967C13.1397 9.82902 12.9489 9.75 12.75 9.75H11.25C11.0511 9.75 10.8603 9.82902 10.7197 9.96967C10.579 10.1103 10.5 10.3011 10.5 10.5V12.75H8.25C8.05109 12.75 7.86032 12.829 7.71967 12.9697C7.57902 13.1103 7.5 13.3011 7.5 13.5V15C7.5 15.1989 7.57902 15.3897 7.71967 15.5303C7.86032 15.671 8.05109 15.75 8.25 15.75H10.5V18C10.5 18.1989 10.579 18.3897 10.7197 18.5303C10.8603 18.671 11.0511 18.75 11.25 18.75H12.75C12.9489 18.75 13.1397 18.671 13.2803 18.5303C13.421 18.3897 13.5 18.1989 13.5 18V15.75H15.75C15.9489 15.75 16.1397 15.671 16.2803 15.5303C16.421 15.3897 16.5 15.1989 16.5 15V13.5Z" stroke="#6064D8" stroke-width="1.5" stroke-linecap="round" stroke-linejoin="round"/>
<path d="M14.584 2.25005C14.3237 1.79448 13.9476 1.41582 13.4938 1.15245C13.04 0.88908 12.5247 0.750366 12 0.750366C11.4753 0.750366 10.96 0.88908 10.5062 1.15245C10.0524 1.41582 9.67628 1.79448 9.416 2.25005H8.25C8.05109 2.25005 7.86032 2.32906 7.71967 2.46972C7.57902 2.61037 7.5 2.80113 7.5 3.00005V6.00005C7.5 6.19896 7.57902 6.38972 7.71967 6.53038C7.86032 6.67103 8.05109 6.75005 8.25 6.75005H15.75C15.9489 6.75005 16.1397 6.67103 16.2803 6.53038C16.421 6.38972 16.5 6.19896 16.5 6.00005V3.00005C16.5 2.80113 16.421 2.61037 16.2803 2.46972C16.1397 2.32906 15.9489 2.25005 15.75 2.25005H14.584Z" stroke="#6064D8" stroke-width="1.5" stroke-linecap="round" stroke-linejoin="round"/>
</g>
<defs>
<clipPath id="clip0_1_67">
<rect width="24" height="24" fill="white"/>
</clipPath>
</defs>
</svg>
