<svg width="30" height="30" viewBox="0 0 30 30" fill="none" xmlns="http://www.w3.org/2000/svg">
<g clip-path="url(#clip0_9_801)">
<path d="M0.9375 21.5625C0.93845 20.1676 1.28505 18.7947 1.94632 17.5665C2.60759 16.3383 3.56291 15.2932 4.72686 14.5245C5.89082 13.7558 7.22713 13.2875 8.61631 13.1615C10.0055 13.0355 11.4042 13.2557 12.6875 13.8025" stroke="#5F63D7" stroke-width="1.5" stroke-linecap="round" stroke-linejoin="round"/>
<path d="M4.93125 3.47626C5.72985 4.30425 6.68716 4.96278 7.74597 5.41251C8.80478 5.86224 9.94338 6.09393 11.0937 6.09376C12.2595 6.09468 13.4131 5.85733 14.4837 5.39626" stroke="#5F63D7" stroke-width="1.5" stroke-linecap="round" stroke-linejoin="round"/>
<path d="M9.375 11.25C12.2227 11.25 14.5312 8.94147 14.5312 6.09375C14.5312 3.24603 12.2227 0.9375 9.375 0.9375C6.52728 0.9375 4.21875 3.24603 4.21875 6.09375C4.21875 8.94147 6.52728 11.25 9.375 11.25Z" stroke="#5F63D7" stroke-width="1.5" stroke-linecap="round" stroke-linejoin="round"/>
<path d="M27.8125 17.8125H15.3125C14.6221 17.8125 14.0625 18.3721 14.0625 19.0625V27.8125C14.0625 28.5029 14.6221 29.0625 15.3125 29.0625H27.8125C28.5029 29.0625 29.0625 28.5029 29.0625 27.8125V19.0625C29.0625 18.3721 28.5029 17.8125 27.8125 17.8125Z" stroke="#5F63D7" stroke-width="1.5" stroke-linecap="round" stroke-linejoin="round"/>
<path d="M20 14.0625H23.125C23.4565 14.0625 23.7745 14.1942 24.0089 14.4286C24.2433 14.663 24.375 14.981 24.375 15.3125V17.8125H18.75V15.3125C18.75 14.981 18.8817 14.663 19.1161 14.4286C19.3505 14.1942 19.6685 14.0625 20 14.0625Z" stroke="#5F63D7" stroke-width="1.5" stroke-linecap="round" stroke-linejoin="round"/>
</g>
<defs>
<clipPath id="clip0_9_801">
<rect width="30" height="30" fill="white"/>
</clipPath>
</defs>
</svg>
