<svg width="24" height="24" viewBox="0 0 24 24" fill="none" xmlns="http://www.w3.org/2000/svg">
<path d="M12 20.5C10.191 20.5 8.65544 19.8689 7.39327 18.6067C6.13109 17.3445 5.5 15.809 5.5 14C5.5 12.5295 5.93847 11.2151 6.8154 10.0568C7.69232 8.89842 8.8391 8.12503 10.2557 7.73658C9.92242 7.65966 9.59582 7.54524 9.27595 7.3933C8.95608 7.24139 8.67435 7.04363 8.43075 6.80003C7.93205 6.30133 7.60994 5.70967 7.46442 5.02505C7.31891 4.34044 7.27179 3.64493 7.32308 2.93853C8.01666 2.88725 8.70095 2.93276 9.37595 3.07508C10.0509 3.21738 10.6378 3.53148 11.1365 4.01738C11.5198 4.38148 11.7958 4.80359 11.9644 5.2837C12.133 5.76384 12.2391 6.26736 12.2826 6.79428C12.4929 6.29045 12.7474 5.81417 13.0461 5.36545C13.3448 4.91674 13.6859 4.50071 14.0692 4.11738C14.2076 3.97891 14.3833 3.90968 14.5961 3.90968C14.8089 3.90968 14.9846 3.97891 15.123 4.11738C15.2615 4.25583 15.3307 4.43146 15.3307 4.64428C15.3307 4.8571 15.2615 5.03274 15.123 5.1712C14.7628 5.53145 14.4442 5.92439 14.1672 6.35003C13.8903 6.77568 13.6756 7.22889 13.523 7.70965C14.9897 8.05452 16.1858 8.8122 17.1115 9.9827C18.0371 11.1532 18.5 12.4923 18.5 14C18.5 15.809 17.8689 17.3445 16.6067 18.6067C15.3445 19.8689 13.8089 20.5 12 20.5ZM12 19C13.3833 19 14.5625 18.5125 15.5375 17.5375C16.5125 16.5625 17 15.3833 17 14C17 12.6167 16.5125 11.4375 15.5375 10.4625C14.5625 9.4875 13.3833 9 12 9C10.6166 9 9.43747 9.4875 8.46247 10.4625C7.48747 11.4375 6.99997 12.6167 6.99997 14C6.99997 15.3833 7.48747 16.5625 8.46247 17.5375C9.43747 18.5125 10.6166 19 12 19Z" fill="#5F63D7"/>
</svg>
