<svg width="24" height="23" viewBox="0 0 24 23" fill="none" xmlns="http://www.w3.org/2000/svg">
<g clip-path="url(#clip0_12_1123)">
<g clip-path="url(#clip1_12_1123)">
<path d="M18.0074 12.0791C18.2788 11.835 18.6011 11.6414 18.9558 11.5094C19.3106 11.3772 19.6908 11.3091 20.0748 11.309C20.4588 11.3088 20.8391 11.3767 21.1939 11.5086C21.5487 11.6405 21.8712 11.8339 22.1428 12.0777C22.4144 12.3216 22.6299 12.6111 22.777 12.9298C22.9241 13.2485 22.9999 13.59 23 13.935C23.0001 14.28 22.9246 14.6216 22.7778 14.9403C22.631 15.2591 22.4157 15.5488 22.1443 15.7928L16.9732 20.4321C16.4395 20.9336 15.7065 21.2249 14.9344 21.2425C14.1623 21.2601 13.4138 21.0023 12.8526 20.5257C12.2913 20.0491 11.9628 19.3922 11.9389 18.6988C11.915 18.0052 12.1976 17.3314 12.725 16.8245C12.7631 16.7885 12.8022 16.7526 12.8432 16.7184L18.0074 12.0791Z" stroke="#5F63D7" stroke-width="1.5" stroke-linecap="round" stroke-linejoin="round"/>
<path d="M15.4233 14.4004L19.5573 18.1133" stroke="#5F63D7" stroke-width="1.5" stroke-linecap="round" stroke-linejoin="round"/>
<path d="M5.39575 10.0796H14.1841" stroke="#5F63D7" stroke-width="1.5" stroke-linecap="round" stroke-linejoin="round"/>
<path d="M5.39575 13.3696H11.2543" stroke="#5F63D7" stroke-width="1.5" stroke-linecap="round" stroke-linejoin="round"/>
<path d="M5.39575 16.6596H8.32456" stroke="#5F63D7" stroke-width="1.5" stroke-linecap="round" stroke-linejoin="round"/>
<path d="M9.30106 21.2655H2.46489C2.07638 21.2655 1.70378 21.1269 1.42906 20.88C1.15434 20.6333 1 20.2985 1 19.9495V6.13165C1 5.78263 1.15434 5.44791 1.42906 5.20111C1.70378 4.95431 2.07638 4.81567 2.46489 4.81567H6.1281C6.1281 3.94311 6.51394 3.10629 7.20075 2.4893C7.88755 1.87232 8.81905 1.5257 9.79034 1.5257C10.7616 1.5257 11.6931 1.87232 12.3799 2.4893C13.0667 3.10629 13.4526 3.94311 13.4526 4.81567H17.1148C17.5033 4.81567 17.8759 4.95431 18.1506 5.20111C18.4254 5.44791 18.5797 5.78263 18.5797 6.13165V8.98297" stroke="#5F63D7" stroke-width="1.5" stroke-linecap="round" stroke-linejoin="round"/>
<path d="M9.78933 4.81565C9.58707 4.81565 9.4231 4.66836 9.4231 4.48666C9.4231 4.30496 9.58707 4.15765 9.78933 4.15765" stroke="#5F63D7" stroke-width="1.5"/>
<path d="M9.78931 4.81565C9.99156 4.81565 10.1555 4.66836 10.1555 4.48666C10.1555 4.30496 9.99156 4.15765 9.78931 4.15765" stroke="#5F63D7" stroke-width="1.5"/>
</g>
</g>
<defs>
<clipPath id="clip0_12_1123">
<rect width="24" height="21.5604" fill="white" transform="translate(0 0.615387)"/>
</clipPath>
<clipPath id="clip1_12_1123">
<rect width="24" height="21.5604" fill="white" transform="translate(0 0.615387)"/>
</clipPath>
</defs>
</svg>
