<svg width="24" height="24" viewBox="0 0 24 24" fill="none" xmlns="http://www.w3.org/2000/svg">
<path d="M2.31636 18.7038V17.5923H21.6885V18.7038H2.31636ZM2.99329 12.4875L2.19906 12.0587L3.21349 10.3106H1.22021V9.43271H3.21349L2.19906 7.70386L2.99329 7.26541L3.97214 8.97886L4.95099 7.26541L5.73559 7.70386L4.71346 9.43271H6.72404V10.3106H4.71346L5.73559 12.0587L4.95099 12.4875L3.97214 10.7644L2.99329 12.4875ZM11.026 12.4875L10.2269 12.0183L11.2462 10.2846H9.25291V9.39234H11.2462L10.2269 7.65099L11.026 7.22214L12.0048 8.93849L12.9789 7.22214L13.7779 7.65099L12.7587 9.39234H14.7519V10.2846H12.7587L13.7779 12.0183L12.9789 12.4875L12.0048 10.7644L11.026 12.4875ZM19.0539 12.4875L18.2693 12.0183L19.2914 10.2846H17.2808V9.39234H19.2914L18.2693 7.65099L19.0539 7.22214L20.0327 8.93849L21.0116 7.22214L21.8058 7.65099L20.7913 9.39234H22.7846V10.2846H20.7913L21.8058 12.0183L21.0116 12.4875L20.0327 10.7644L19.0539 12.4875Z" fill="#111256"/>
</svg>
