<svg width="24" height="22" viewBox="0 0 24 22" fill="none" xmlns="http://www.w3.org/2000/svg">
<g clip-path="url(#clip0_12_1091)">
<path d="M12 9.10279C11.0375 9.10279 10.2135 8.79492 9.52813 8.17919C8.84271 7.56345 8.5 6.82325 8.5 5.9586C8.5 5.09394 8.84271 4.35374 9.52813 3.73801C10.2135 3.12226 11.0375 2.81439 12 2.81439C12.9625 2.81439 13.7864 3.12226 14.4718 3.73801C15.1572 4.35374 15.5 5.09394 15.5 5.9586C15.5 6.82325 15.1572 7.56345 14.4718 8.17919C13.7864 8.79492 12.9625 9.10279 12 9.10279ZM12 7.7553C12.55 7.7553 13.0208 7.57938 13.4125 7.22752C13.8041 6.87567 14 6.45269 14 5.9586C14 5.46451 13.8041 5.04153 13.4125 4.68968C13.0208 4.33782 12.55 4.1619 12 4.1619C11.45 4.1619 10.9791 4.33782 10.5875 4.68968C10.1958 5.04153 9.99998 5.46451 9.99998 5.9586C9.99998 6.45269 10.1958 6.87567 10.5875 7.22752C10.9791 7.57938 11.45 7.7553 12 7.7553ZM4.5 19.1228V13.788C4.5 13.3481 4.62975 12.9406 4.88925 12.5656C5.14875 12.1906 5.50746 11.8978 5.96537 11.6873C6.80897 11.3095 7.74423 10.9974 8.77115 10.7509C9.79807 10.5045 10.8743 10.3813 12 10.3813C13.1256 10.3813 14.2019 10.5045 15.2288 10.7509C16.2557 10.9974 17.191 11.3095 18.0346 11.6873C18.4925 11.8978 18.8512 12.1906 19.1107 12.5656C19.3702 12.9406 19.5 13.3483 19.5 13.7886V17.4989C19.5 17.9527 19.325 18.3368 18.975 18.6512C18.625 18.9656 18.1974 19.1228 17.6922 19.1228H10C9.32308 19.1228 8.75322 18.9149 8.2904 18.4992C7.82758 18.0834 7.59617 17.5714 7.59617 16.9633C7.59617 16.3552 7.82758 15.8433 8.2904 15.4275C8.75322 15.0117 9.32308 14.8039 10 14.8039H12.95L14.4712 11.9862C14.0801 11.8975 13.6679 11.8324 13.2346 11.7909C12.8013 11.7495 12.3897 11.7287 12 11.7287C10.9218 11.7287 9.93043 11.8453 9.02595 12.0786C8.12147 12.3118 7.33589 12.5822 6.66922 12.8897C6.45767 12.9818 6.29325 13.1091 6.17595 13.2715C6.05863 13.4339 5.99997 13.6061 5.99997 13.788V19.1228H4.5ZM10 17.7753H11.3731L12.2462 16.1514H10C9.75512 16.1514 9.54325 16.2317 9.3644 16.3924C9.18555 16.553 9.09613 16.7433 9.09613 16.9633C9.09613 17.1833 9.18555 17.3736 9.3644 17.5343C9.54325 17.695 9.75512 17.7753 10 17.7753ZM13.025 17.7753H17.6922C17.782 17.7753 17.8557 17.7494 17.9134 17.6976C17.9711 17.6457 18 17.5795 18 17.4989V13.788C18 13.6061 17.9381 13.4339 17.8144 13.2715C17.6907 13.1091 17.5346 12.9818 17.3461 12.8897C17.1397 12.7941 16.9182 12.7005 16.6817 12.6089C16.4452 12.5174 16.2 12.4296 15.9461 12.3455L13.025 17.7753Z" fill="#5F63D7"/>
</g>
<defs>
<clipPath id="clip0_12_1091">
<rect width="24" height="21.5604" fill="white" transform="translate(0 0.27478)"/>
</clipPath>
</defs>
</svg>
