<svg width="24" height="24" viewBox="0 0 24 24" fill="none" xmlns="http://www.w3.org/2000/svg">
<g clip-path="url(#clip0_74_5843)">
<path d="M10.533 11.021C12.2887 11.021 13.712 9.59774 13.712 7.84202C13.712 6.08631 12.2887 4.66302 10.533 4.66302C8.77729 4.66302 7.354 6.08631 7.354 7.84202C7.354 9.59774 8.77729 11.021 10.533 11.021Z" stroke="#6064D8" stroke-width="1.5" stroke-linecap="round" stroke-linejoin="round"/>
<path d="M16.2621 15.916C15.7185 14.8818 14.9026 14.0159 13.9026 13.4117C12.9025 12.8076 11.7564 12.4883 10.5881 12.4883C9.41972 12.4883 8.27359 12.8076 7.27356 13.4117C6.27353 14.0159 5.45764 14.8818 4.91406 15.916" stroke="#6064D8" stroke-width="1.5" stroke-linecap="round" stroke-linejoin="round"/>
<path d="M10.533 20.316C15.936 20.316 20.316 15.936 20.316 10.533C20.316 5.13 15.936 0.75 10.533 0.75C5.13 0.75 0.75 5.13 0.75 10.533C0.75 15.936 5.13 20.316 10.533 20.316Z" stroke="#6064D8" stroke-width="1.5" stroke-linecap="round" stroke-linejoin="round"/>
<path d="M23.2502 23.25L17.4502 17.45" stroke="#6064D8" stroke-width="1.5" stroke-linecap="round" stroke-linejoin="round"/>
<path d="M10.5879 16.099V17.25" stroke="#6064D8" stroke-width="1.5" stroke-linecap="round" stroke-linejoin="round"/>
<path d="M7.72119 13.166L10.5882 16.099" stroke="#6064D8" stroke-width="1.5" stroke-linecap="round" stroke-linejoin="round"/>
<path d="M13.4549 13.166L10.5879 16.099" stroke="#6064D8" stroke-width="1.5" stroke-linecap="round" stroke-linejoin="round"/>
</g>
<defs>
<clipPath id="clip0_74_5843">
<rect width="24" height="24" fill="white"/>
</clipPath>
</defs>
</svg>
