<svg width="24" height="24" viewBox="0 0 24 24" fill="none" xmlns="http://www.w3.org/2000/svg">
<g clip-path="url(#clip0_79_5065)">
<path d="M23.25 9.937C23.2504 13.1276 22.1208 16.2153 20.0614 18.6523C18.002 21.0894 15.146 22.7182 12 23.25C8.85399 22.7182 5.998 21.0894 3.93862 18.6523C1.87923 16.2153 0.74957 13.1276 0.75 9.937V2.25C0.75 1.85218 0.908035 1.47064 1.18934 1.18934C1.47064 0.908035 1.85218 0.75 2.25 0.75H21.75C22.1478 0.75 22.5294 0.908035 22.8107 1.18934C23.092 1.47064 23.25 1.85218 23.25 2.25V9.937Z" stroke="#5F63D7" stroke-width="1.5" stroke-linecap="round" stroke-linejoin="round"/>
<path d="M18.697 11.958C19.7292 11.958 20.566 11.1212 20.566 10.089C20.566 9.05675 19.7292 8.21997 18.697 8.21997C17.6648 8.21997 16.828 9.05675 16.828 10.089C16.828 11.1212 17.6648 11.958 18.697 11.958Z" stroke="#5F63D7" stroke-width="1.5" stroke-linecap="round" stroke-linejoin="round"/>
<path d="M21.75 14.29C21.138 13.4987 20.2423 12.9763 19.2522 12.8331C18.2621 12.69 17.2551 12.9374 16.444 13.523" stroke="#5F63D7" stroke-width="1.5" stroke-linecap="round" stroke-linejoin="round"/>
<path d="M5.30999 11.958C6.34221 11.958 7.17899 11.1212 7.17899 10.089C7.17899 9.05675 6.34221 8.21997 5.30999 8.21997C4.27777 8.21997 3.44099 9.05675 3.44099 10.089C3.44099 11.1212 4.27777 11.958 5.30999 11.958Z" stroke="#5F63D7" stroke-width="1.5" stroke-linecap="round" stroke-linejoin="round"/>
<path d="M2.257 14.2889C2.8692 13.4978 3.76487 12.9755 4.7549 12.8324C5.74493 12.6893 6.75184 12.9365 7.563 13.5219" stroke="#5F63D7" stroke-width="1.5" stroke-linecap="round" stroke-linejoin="round"/>
<path d="M16.219 16.008C16.2277 15.4323 16.1219 14.8606 15.9076 14.3263C15.6934 13.7919 15.375 13.3054 14.971 12.8952C14.5669 12.485 14.0854 12.1593 13.5543 11.9369C13.0232 11.7146 12.4532 11.6001 11.8775 11.6001C11.3017 11.6001 10.7318 11.7146 10.2007 11.9369C9.66959 12.1593 9.18804 12.485 8.78403 12.8952C8.38001 13.3054 8.06161 13.7919 7.84736 14.3263C7.6331 14.8606 7.52725 15.4323 7.53599 16.008" stroke="#5F63D7" stroke-width="1.5" stroke-linecap="round" stroke-linejoin="round"/>
<path d="M11.833 10.4821C13.2502 10.4821 14.399 9.33326 14.399 7.9161C14.399 6.49893 13.2502 5.3501 11.833 5.3501C10.4158 5.3501 9.267 6.49893 9.267 7.9161C9.267 9.33326 10.4158 10.4821 11.833 10.4821Z" stroke="#5F63D7" stroke-width="1.5" stroke-linecap="round" stroke-linejoin="round"/>
</g>
<defs>
<clipPath id="clip0_79_5065">
<rect width="24" height="24" fill="white"/>
</clipPath>
</defs>
</svg>
