<svg width="24" height="24" viewBox="0 0 24 24" fill="none" xmlns="http://www.w3.org/2000/svg">
<g clip-path="url(#clip0_79_4941)">
<path d="M14.205 2.37004L2.53795 14.038C1.57441 15.0268 1.03915 16.3554 1.04808 17.736C1.05701 19.1166 1.60941 20.4381 2.58566 21.4143C3.56191 22.3906 4.88342 22.943 6.26402 22.9519C7.64461 22.9608 8.97316 22.4256 9.96195 21.462L21.63 9.80004C22.6152 8.81543 23.169 7.47974 23.1695 6.08681C23.17 4.69388 22.6171 3.35782 21.6325 2.37254C20.6478 1.38726 19.3121 0.833477 17.9192 0.833008C16.5263 0.832539 15.1902 1.38543 14.205 2.37004Z" stroke="#5F63D7" stroke-width="1.5" stroke-linecap="round" stroke-linejoin="round"/>
<path d="M15.2659 16.1589L7.84094 8.73389" stroke="#5F63D7" stroke-width="1.5" stroke-linecap="round" stroke-linejoin="round"/>
<path d="M15.8 5.02198C16.0089 4.81293 16.2569 4.64709 16.5299 4.53394C16.8029 4.42079 17.0955 4.36255 17.391 4.36255C17.6866 4.36255 17.9792 4.42079 18.2522 4.53394C18.5252 4.64709 18.7732 4.81293 18.982 5.02198" stroke="#5F63D7" stroke-width="1.5" stroke-linecap="round" stroke-linejoin="round"/>
</g>
<defs>
<clipPath id="clip0_79_4941">
<rect width="24" height="24" fill="white"/>
</clipPath>
</defs>
</svg>
