<svg width="24" height="23" viewBox="0 0 24 23" fill="none" xmlns="http://www.w3.org/2000/svg">
<g clip-path="url(#clip0_12_1140)">
<path d="M18 13.3235C18 13.1448 17.921 12.9735 17.7803 12.8471C17.6397 12.7207 17.4489 12.6498 17.25 12.6498H15.75V11.3022C15.75 11.1235 15.671 10.9522 15.5303 10.8258C15.3897 10.6994 15.1989 10.6285 15 10.6285H13.5C13.3011 10.6285 13.1103 10.6994 12.9697 10.8258C12.829 10.9522 12.75 11.1235 12.75 11.3022V12.6498H11.25C11.0511 12.6498 10.8603 12.7207 10.7197 12.8471C10.579 12.9735 10.5 13.1448 10.5 13.3235V14.671C10.5 14.8497 10.579 15.0211 10.7197 15.1475C10.8603 15.2738 11.0511 15.3448 11.25 15.3448H12.75V16.6923C12.75 16.871 12.829 17.0424 12.9697 17.1688C13.1103 17.2951 13.3011 17.3661 13.5 17.3661H15C15.1989 17.3661 15.3897 17.2951 15.5303 17.1688C15.671 17.0424 15.75 16.871 15.75 16.6923V15.3448H17.25C17.4489 15.3448 17.6397 15.2738 17.7803 15.1475C17.921 15.0211 18 14.8497 18 14.671V13.3235Z" stroke="#5F63D7" stroke-width="1.5" stroke-linecap="round" stroke-linejoin="round"/>
<path d="M3 20.0611H21C21.5967 20.0611 22.169 19.8482 22.591 19.4691C23.0129 19.0901 23.25 18.5759 23.25 18.0399V7.9334H5.25V18.0399C5.25 18.5759 5.01295 19.0901 4.59099 19.4691C4.16903 19.8482 3.59674 20.0611 3 20.0611ZM3 20.0611C2.40326 20.0611 1.83097 19.8482 1.40901 19.4691C0.987053 19.0901 0.75 18.5759 0.75 18.0399V3.89082C0.75 3.53343 0.908035 3.19068 1.18934 2.93797C1.47064 2.68526 1.85218 2.54329 2.25 2.54329H8.25C8.64782 2.54329 9.02936 2.68526 9.31066 2.93797C9.59196 3.19068 9.75 3.53343 9.75 3.89082V4.56458C9.75 4.74327 9.82902 4.91465 9.96967 5.041C10.1103 5.16736 10.3011 5.23834 10.5 5.23834H20.25" stroke="#5F63D7" stroke-width="1.5" stroke-linecap="round" stroke-linejoin="round"/>
</g>
<defs>
<clipPath id="clip0_12_1140">
<rect width="24" height="21.5604" fill="white" transform="translate(0 0.522003)"/>
</clipPath>
</defs>
</svg>
