<svg width="24" height="24" viewBox="0 0 24 24" fill="none" xmlns="http://www.w3.org/2000/svg">
<g clip-path="url(#clip0_17_2129)">
<path d="M22.5707 9.85946L3.20693 1.82466C2.39116 1.48613 1.4696 1.63505 0.801817 2.21312C0.134035 2.79127 -0.145246 3.68204 0.0730042 4.53788L1.97585 12L0.0730042 19.4621C-0.145246 20.318 0.133989 21.2087 0.80177 21.7869C1.47082 22.3662 2.39261 22.5132 3.20693 22.1754L22.5707 14.1406C23.4523 13.7747 24 12.9545 24 12C24 11.0455 23.4523 10.2253 22.5707 9.85946ZM22.0317 12.8416L2.66796 20.8764C2.34232 21.0115 1.98883 20.9545 1.72225 20.7237C1.45572 20.4929 1.34861 20.1512 1.43571 19.8096L3.24785 12.7031H10.2353C10.6236 12.7031 10.9384 12.3883 10.9384 12C10.9384 11.6116 10.6236 11.2968 10.2353 11.2968H3.24789L1.43571 4.19045C1.34861 3.84882 1.45572 3.5071 1.72225 3.27634C1.98879 3.04557 2.34218 2.98848 2.66791 3.12357L22.0317 11.1584C22.5532 11.3747 22.5937 11.8573 22.5937 12C22.5937 12.1427 22.5532 12.6253 22.0317 12.8416Z" fill="#6064D8"/>
</g>
<defs>
<clipPath id="clip0_17_2129">
<rect width="24" height="24" fill="white"/>
</clipPath>
</defs>
</svg>
