<svg width="24" height="24" viewBox="0 0 24 24" fill="none" xmlns="http://www.w3.org/2000/svg">
<path d="M2.5769 18.5769V16.1923H17.0384V18.5769H2.5769ZM18.0384 18.5769V16.1923H19.2307V18.5769H18.0384ZM20.2307 18.5769V16.1923H21.423V18.5769H20.2307ZM18.0384 15V13.7C18.0384 13.0757 17.8467 12.583 17.4634 12.2221C17.0801 11.8612 16.6217 11.6808 16.0884 11.6808H14.5384C13.6948 11.6808 12.9769 11.3819 12.3846 10.7841C11.7923 10.1864 11.4961 9.45835 11.4961 8.60004C11.4961 7.76315 11.7923 7.0533 12.3846 6.47046C12.9769 5.88763 13.6948 5.59621 14.5384 5.59621V6.78849C14.0384 6.78849 13.6051 6.95968 13.2384 7.30206C12.8717 7.64444 12.6884 8.0765 12.6884 8.59821C12.6884 9.11993 12.8717 9.5654 13.2384 9.93464C13.6051 10.3039 14.0384 10.4885 14.5384 10.4885H16.0884C16.9448 10.4885 17.6826 10.7773 18.3018 11.3548C18.9211 11.9324 19.2307 12.6423 19.2307 13.4846V15H18.0384ZM20.2307 15V12.75C20.2307 11.65 19.8473 10.7257 19.0807 9.97694C18.314 9.22822 17.364 8.85386 16.2307 8.85386V7.66159C16.7307 7.66159 17.1608 7.48146 17.5211 7.12121C17.8813 6.76095 18.0615 6.33081 18.0615 5.83081C18.0615 5.318 17.8813 4.87825 17.5211 4.51159C17.1608 4.14492 16.7307 3.96159 16.2307 3.96159V2.76929C17.0743 2.76929 17.789 3.06864 18.3749 3.66736C18.9608 4.26608 19.2537 4.98723 19.2537 5.83081C19.2537 6.31415 19.1589 6.74043 18.9691 7.10966C18.7794 7.4789 18.5345 7.80091 18.2345 8.07571C19.1358 8.43295 19.8925 9.0231 20.5047 9.84616C21.1169 10.6692 21.423 11.6372 21.423 12.75V15H20.2307Z" fill="#5F63D7"/>
</svg>
