<svg xmlns="http://www.w3.org/2000/svg" xmlns:xlink="http://www.w3.org/1999/xlink" viewBox="0 0 400 400"><defs><style>.cls-1{fill:url(#linear-gradient);}.cls-2{fill:#fff;}.cls-3{fill:none;stroke:#fff;stroke-linecap:round;stroke-miterlimit:10;stroke-width:41.15px;}</style><linearGradient id="linear-gradient" x1="29.31" y1="29.31" x2="370.69" y2="370.69" gradientUnits="userSpaceOnUse"><stop offset="0" stop-color="#8191d8"/><stop offset="0.17" stop-color="#7480d8"/><stop offset="0.39" stop-color="#6970d8"/><stop offset="0.64" stop-color="#6267d8"/><stop offset="1" stop-color="#6064d8"/></linearGradient></defs><g id="Layer_12" data-name="Layer 12"><rect class="cls-1" width="400" height="400" rx="100.08"/><circle class="cls-2" cx="200" cy="88.72" r="30.66"/><path class="cls-3" d="M103.53,321.94a174.33,174.33,0,0,0,42.35-5.17A163.32,163.32,0,0,0,200,292.28c32.37-22.63,59.2-42.46,59.2-76.35S232.05,159.72,200,159.72h0c-32.06,0-59.18,22.34-59.18,56.23s26.83,53.7,59.2,76.33h0a163.32,163.32,0,0,0,54.12,24.49,174.33,174.33,0,0,0,42.35,5.17"/></g></svg>