<svg width="112" height="44" viewBox="0 0 112 44" fill="none" xmlns="http://www.w3.org/2000/svg">
<path d="M53.8241 30.5932C54.8609 30.5932 55.6002 30.4117 56.0418 30.0488C56.5026 29.6667 56.733 29.2178 56.733 28.702C56.733 28.2245 56.5506 27.8424 56.1858 27.5559C55.8402 27.2693 55.3217 27.0114 54.6305 26.7822L53.1041 26.2951C52.0672 25.9512 51.1456 25.5692 50.3392 25.1489C49.5519 24.7286 48.9375 24.1842 48.4959 23.5156C48.0735 22.847 47.8623 21.9969 47.8623 20.9654C47.8623 19.3798 48.4671 18.1191 49.6768 17.183C50.8864 16.247 52.5664 15.779 54.7169 15.779C55.8114 15.779 56.781 15.884 57.6258 16.0942C58.4899 16.3043 59.1619 16.6195 59.6419 17.0397C60.1411 17.4409 60.3907 17.9376 60.3907 18.5298C60.3907 18.9691 60.2851 19.3512 60.0739 19.6759C59.8819 19.9816 59.6323 20.249 59.3251 20.4783C58.8835 20.1726 58.2978 19.9147 57.5682 19.7046C56.8386 19.4754 56.0322 19.3607 55.1489 19.3607C54.2273 19.3607 53.5361 19.5136 53.0753 19.8192C52.6145 20.1058 52.384 20.4878 52.384 20.9654C52.384 21.3474 52.5376 21.6626 52.8449 21.911C53.1521 22.1402 53.6129 22.3503 54.2273 22.5414L55.8114 23.0285C57.5586 23.5634 58.9027 24.2797 59.8435 25.1776C60.7843 26.0563 61.2547 27.2407 61.2547 28.7307C61.2547 30.3353 60.6307 31.6439 59.3827 32.6563C58.1346 33.6497 56.3298 34.1463 53.9681 34.1463C52.7969 34.1463 51.7504 34.0222 50.8288 33.7738C49.9072 33.5255 49.1679 33.1625 48.6111 32.685C48.0735 32.2074 47.8047 31.6534 47.8047 31.023C47.8047 30.5264 47.9487 30.1061 48.2367 29.7622C48.5439 29.3993 48.8799 29.1318 49.2447 28.9599C49.7632 29.3802 50.4064 29.7622 51.1744 30.1061C51.9616 30.4308 52.8449 30.5932 53.8241 30.5932Z" fill="#6064D8"/>
<path d="M77.1801 27.8138H72.8888V25.2635C72.8888 24.3848 72.6584 23.7639 72.1975 23.401C71.7559 23.0189 71.1895 22.8279 70.4983 22.8279C69.8839 22.8279 69.327 22.9425 68.8278 23.1718C68.3478 23.401 67.935 23.6589 67.5894 23.9454L67.4742 20.5069C67.9158 20.2586 68.463 20.0293 69.1158 19.8192C69.7687 19.59 70.4887 19.4754 71.2759 19.4754C73.1 19.4754 74.54 19.9434 75.5961 20.8794C76.6521 21.7964 77.1801 23.1813 77.1801 25.0343V27.8138ZM63.9605 26.0945H68.223V33.6306C68.031 33.6879 67.7622 33.7356 67.4166 33.7738C67.071 33.8312 66.6966 33.8598 66.2933 33.8598C65.4869 33.8598 64.8917 33.7165 64.5077 33.43C64.1429 33.1434 63.9605 32.6277 63.9605 31.8827V26.0945ZM72.8888 26.0945H77.1801V33.6306C76.9881 33.6879 76.7193 33.7356 76.3737 33.7738C76.0281 33.8312 75.6537 33.8598 75.2504 33.8598C74.4248 33.8598 73.82 33.7165 73.436 33.43C73.0712 33.1434 72.8888 32.6277 72.8888 31.8827V26.0945ZM68.223 28.3009H63.9605V15.0053C64.1333 14.948 64.3925 14.8907 64.7381 14.8334C65.0837 14.7761 65.4581 14.7474 65.8613 14.7474C66.687 14.7474 67.2822 14.8907 67.647 15.1772C68.031 15.4638 68.223 15.9891 68.223 16.7532V28.3009Z" fill="#6064D8"/>
<path d="M80.3813 15.9509C80.3813 15.3014 80.6021 14.757 81.0437 14.3176C81.5045 13.8782 82.0806 13.6585 82.7718 13.6585C83.4822 13.6585 84.0582 13.8782 84.4998 14.3176C84.9414 14.757 85.1623 15.3014 85.1623 15.9509C85.1623 16.5813 84.9414 17.1257 84.4998 17.5842C84.0582 18.0426 83.4822 18.2719 82.7718 18.2719C82.0806 18.2719 81.5045 18.0426 81.0437 17.5842C80.6021 17.1257 80.3813 16.5813 80.3813 15.9509ZM80.6405 26.0945H84.903V33.6306C84.7302 33.6879 84.471 33.7356 84.1254 33.7738C83.7798 33.8312 83.4054 33.8598 83.0022 33.8598C82.1766 33.8598 81.5717 33.7165 81.1877 33.43C80.8229 33.1434 80.6405 32.6277 80.6405 31.8827V26.0945ZM84.903 28.3009H80.6405V20.0771C80.8133 20.0198 81.0725 19.9625 81.4181 19.9052C81.7829 19.8479 82.167 19.8192 82.5702 19.8192C83.3958 19.8192 83.991 19.9625 84.3558 20.249C84.7206 20.5165 84.903 21.0418 84.903 21.825V28.3009Z" fill="#6064D8"/>
<path d="M91.8286 24.1747V20.9081H97.4447C97.5407 21.0609 97.6368 21.2806 97.7328 21.5671C97.8288 21.8537 97.8768 22.1689 97.8768 22.5127C97.8768 23.1049 97.7424 23.5347 97.4735 23.8022C97.2239 24.0505 96.8687 24.1747 96.4079 24.1747H91.8286ZM92.491 19.7619V23.6589H88.43V19.6186C88.43 18.3578 88.6892 17.3358 89.2077 16.5526C89.7453 15.7694 90.4749 15.1963 91.3965 14.8334C92.3374 14.4513 93.3742 14.2603 94.507 14.2603C95.8511 14.2603 96.8495 14.4418 97.5023 14.8047C98.1744 15.1486 98.5104 15.7121 98.5104 16.4953C98.5104 16.8392 98.4336 17.1448 98.28 17.4122C98.1456 17.6797 97.992 17.8898 97.8192 18.0426C97.4543 17.928 97.0607 17.8325 96.6383 17.7561C96.2159 17.6797 95.7455 17.6415 95.2271 17.6415C94.3246 17.6415 93.643 17.8039 93.1822 18.1286C92.7214 18.4534 92.491 18.9978 92.491 19.7619ZM88.43 22.8279H92.6926V33.6306C92.5006 33.6879 92.2318 33.7356 91.8862 33.7738C91.5405 33.8312 91.1661 33.8598 90.7629 33.8598C89.9565 33.8598 89.3613 33.7165 88.9773 33.43C88.6124 33.1434 88.43 32.6277 88.43 31.8827V22.8279Z" fill="#6064D8"/>
<path d="M105.606 30.9371C106.048 30.9371 106.48 30.8989 106.902 30.8225C107.344 30.7269 107.66 30.6219 107.852 30.5073V27.7564L105.433 27.9857C104.78 28.0239 104.262 28.1576 103.878 28.3868C103.494 28.6161 103.302 28.9599 103.302 29.4184C103.302 29.8769 103.484 30.2494 103.849 30.5359C104.214 30.8033 104.8 30.9371 105.606 30.9371ZM105.433 19.4754C107.43 19.4754 109.024 19.8956 110.214 20.7361C111.405 21.5576 112 22.8375 112 24.5758V31.0803C112 31.5579 111.875 31.9495 111.625 32.2552C111.376 32.5417 111.059 32.79 110.675 33.0002C110.099 33.344 109.379 33.6115 108.515 33.8025C107.67 34.0126 106.7 34.1177 105.606 34.1177C103.648 34.1177 102.083 33.7356 100.911 32.9715C99.7594 32.2074 99.1834 31.0708 99.1834 29.5617C99.1834 28.2627 99.5866 27.2693 100.393 26.5816C101.199 25.8748 102.399 25.445 103.993 25.2922L107.824 24.891V24.5472C107.824 23.8977 107.564 23.4296 107.046 23.1431C106.547 22.8566 105.827 22.7133 104.886 22.7133C104.156 22.7133 103.436 22.7993 102.726 22.9712C102.035 23.1431 101.411 23.3437 100.854 23.5729C100.623 23.4201 100.422 23.1909 100.249 22.8852C100.095 22.5605 100.019 22.2262 100.019 21.8823C100.019 21.08 100.46 20.4974 101.343 20.1344C101.9 19.9052 102.543 19.7428 103.273 19.6473C104.022 19.5327 104.742 19.4754 105.433 19.4754Z" fill="#6064D8"/>
<path d="M32.4398 43.3137C30.0099 43.3162 27.589 43.0199 25.2315 42.4313C22.6043 41.783 20.0849 40.7577 17.7515 39.3874C15.4183 40.7601 12.8989 41.7884 10.2715 42.4405C7.91444 43.0282 5.49405 43.324 3.0648 43.3213C2.2458 43.3032 1.46643 42.9652 0.893596 42.3796C0.320761 41.7939 0 41.0073 0 40.1881C0 39.3689 0.320761 38.5823 0.893596 37.9966C1.46643 37.411 2.2458 37.073 3.0648 37.0549C4.97982 37.0544 6.88753 36.8186 8.74501 36.3527C9.83893 36.0821 10.9106 35.7285 11.9507 35.2948C8.50229 32.5058 5.59731 29.0941 5.59731 24.0428C5.59731 20.7119 6.91012 17.6802 9.29608 15.5095C11.5401 13.47 14.5458 12.3465 17.7515 12.3465C20.9572 12.3465 23.9614 13.47 26.2024 15.508C28.5899 17.6787 29.9042 20.7088 29.9042 24.0397C29.9042 29.0941 27.0038 32.5043 23.5523 35.2948C24.5927 35.7277 25.6643 36.0813 26.758 36.3527C28.6189 36.8162 30.5297 37.0494 32.4474 37.0473C33.2664 37.0653 34.0458 37.4034 34.6186 37.989C35.1914 38.5746 35.5122 39.3613 35.5122 40.1805C35.5122 40.9997 35.1914 41.7863 34.6186 42.3719C34.0458 42.9575 33.2664 43.2956 32.4474 43.3137H32.4398ZM17.7515 18.6129C14.8282 18.6129 11.8713 20.4783 11.8713 24.0428C11.8713 27.0271 14.0543 29.1353 17.753 31.8281C21.4533 29.1399 23.6363 27.0317 23.6363 24.0428C23.6332 20.4768 20.6733 18.6129 17.7515 18.6129Z" fill="#6064D8"/>
<path d="M17.7517 9.3393C20.3307 9.3393 22.4213 7.24862 22.4213 4.66965C22.4213 2.09067 20.3307 0 17.7517 0C15.1727 0 13.082 2.09067 13.082 4.66965C13.082 7.24862 15.1727 9.3393 17.7517 9.3393Z" fill="#6064D8"/>
</svg>
