<svg xmlns="http://www.w3.org/2000/svg" viewBox="0 0 400 400"><defs><style>.cls-1{fill:#6064d8;}</style></defs><g id="Layer_13" data-name="Layer 13"><path class="cls-1" d="M296.22,342.18A194.11,194.11,0,0,1,249,336.4a183.66,183.66,0,0,1-49-19.94,184.07,184.07,0,0,1-49,20,194.25,194.25,0,0,1-47.21,5.77,20.53,20.53,0,0,1,0-41.05A153.09,153.09,0,0,0,141,296.58a145.07,145.07,0,0,0,21-6.93c-22.59-18.27-41.62-40.62-41.62-73.71,0-21.82,8.6-41.68,24.23-55.9C159.31,146.68,179,139.32,200,139.32s40.68,7.36,55.36,20.71c15.64,14.22,24.25,34.07,24.25,55.89,0,33.11-19,55.45-41.61,73.73a146.59,146.59,0,0,0,21,6.93,153.5,153.5,0,0,0,37.27,4.55,20.53,20.53,0,0,1,0,41.05ZM200,180.37c-19.15,0-38.52,12.22-38.52,35.57,0,19.55,14.3,33.36,38.53,51,24.24-17.61,38.54-31.42,38.54-51C238.53,192.58,219.14,180.37,200,180.37Z"/><circle class="cls-1" cx="200" cy="89.03" r="30.59"/></g></svg>